<?xml version="1.0" standalone="no"?>
<!DOCTYPE svg PUBLIC "-//W3C//DTD SVG 20010904//EN"
 "http://www.w3.org/TR/2001/REC-SVG-20010904/DTD/svg10.dtd">
<svg version="1.0" xmlns="http://www.w3.org/2000/svg"
 width="871.000000pt" height="656.000000pt" viewBox="0 0 871.000000 656.000000"
 preserveAspectRatio="xMidYMid meet">

<g transform="translate(0.000000,656.000000) scale(0.100000,-0.100000)"
fill="#000000" stroke="none">

<path fill="#E11D48"  d="M4085 6264 c-370 -29 -686 -93 -1010 -205 -541 -186 -1002 -457
-1432 -840 -334 -298 -672 -748 -887 -1184 -69 -140 -176 -395 -191 -457 l-7
-28 294 0 294 0 24 58 c99 243 292 563 486 807 108 136 396 425 524 526 418
331 873 556 1375 680 l130 32 53 58 c40 44 74 69 135 99 188 92 381 70 584
-68 53 -36 65 -40 148 -46 472 -37 970 -184 1390 -412 280 -152 596 -386 810
-599 531 -528 868 -1199 974 -1940 84 -579 25 -1122 -176 -1630 -55 -138 -188
-415 -224 -467 -11 -14 -19 -31 -19 -37 0 -8 92 -11 309 -11 l308 0 42 90
c147 317 267 761 317 1170 22 182 26 666 6 840 -93 807 -384 1498 -882 2095
-151 181 -374 402 -557 551 -611 500 -1379 821 -2158 904 -103 11 -571 21
-660 14z m673 -228 c160 -21 304 -49 474 -92 202 -50 189 -43 182 -111 -4 -32
-7 -59 -8 -60 -1 -1 -31 7 -66 18 -159 50 -385 96 -625 128 -235 32 -366 41
-714 51 -178 5 -325 11 -327 13 -8 8 239 53 386 71 86 10 581 -3 698 -18z
m-2022 -402 l6 -49 -142 -74 c-78 -40 -143 -71 -146 -69 -5 6 44 128 59 146
17 21 201 111 210 103 4 -4 10 -30 13 -57z m4435 -852 c132 -142 349 -426 349
-458 0 -7 -22 -25 -50 -39 l-49 -25 -24 33 c-143 198 -210 280 -380 464 -29
31 -29 32 -17 85 6 29 13 59 16 66 6 19 64 -29 155 -126z m-5683 -227 c-87
-117 -185 -260 -233 -341 -31 -52 -61 -94 -67 -94 -17 0 -92 23 -101 31 -11 9
9 47 102 194 94 149 177 268 256 364 l60 74 3 -99 c3 -89 1 -101 -20 -129z
m6528 -1380 c45 -164 46 -162 -18 -172 -29 -5 -54 -8 -56 -7 -8 5 -73 268 -68
279 3 8 20 16 38 18 71 9 68 11 104 -118z m72 -1470 c3 -2 -47 -247 -52 -252
-2 -2 -26 2 -55 8 -60 13 -60 10 -31 142 28 128 22 119 82 111 29 -4 54 -8 56
-9z"/>
<path d="M3965 5776 c-115 -36 -198 -108 -248 -214 -29 -62 -32 -75 -32 -169
0 -101 0 -102 47 -192 54 -104 52 -109 -32 -136 -222 -71 -417 -243 -555 -490
-141 -251 -240 -676 -275 -1174 -10 -137 -9 -156 5 -171 9 -10 23 -47 31 -82
8 -34 21 -80 29 -101 8 -20 15 -40 15 -42 0 -3 -36 -5 -79 -5 -63 0 -80 3 -85
16 -3 9 -6 245 -6 525 l0 509 35 0 c19 0 35 4 35 10 0 11 -62 102 -94 138
l-19 22 -539 0 -538 0 0 -670 0 -670 360 -2 360 -3 -26 -55 c-44 -94 -83 -223
-88 -288 -4 -62 -4 -62 -63 -109 -32 -26 -81 -68 -110 -95 -48 -44 -56 -48
-103 -48 -154 0 -202 -51 -217 -229 -5 -62 -3 -75 10 -83 15 -8 13 -14 -13
-57 -63 -101 -175 -374 -204 -493 -6 -28 -6 -28 49 -28 59 0 62 -2 40 -40 -29
-51 -33 -50 239 -50 l253 0 6 -108 c10 -178 56 -309 148 -425 69 -85 152 -154
233 -192 l70 -33 -115 -6 c-914 -52 -1121 -68 -1444 -112 -227 -32 -349 -58
-450 -96 -73 -29 -77 -32 -55 -42 43 -18 545 -11 910 12 1373 88 2848 121
3915 87 83 -3 236 -7 340 -10 417 -12 984 -40 1535 -75 438 -27 667 -34 794
-21 61 6 114 15 119 20 17 17 -149 68 -338 105 -149 29 -582 76 -858 92 l-118
7 60 31 c86 44 177 113 226 171 225 264 223 647 -3 906 -25 27 -43 51 -41 53
2 2 58 9 124 15 66 7 122 15 124 17 7 7 -27 50 -105 134 -243 258 -492 370
-827 370 l-134 0 9 53 c11 70 2 141 -28 204 -32 67 -58 85 -180 124 -124 39
-195 72 -211 98 -92 148 -378 689 -369 698 3 3 29 10 58 14 111 18 132 39 149
151 15 92 6 302 -14 351 -19 44 -37 50 -123 37 -159 -22 -319 -78 -409 -141
l-56 -39 -26 19 c-41 33 -128 60 -257 82 -168 28 -220 43 -381 106 -200 79
-374 168 -384 197 -5 12 -15 83 -21 158 l-13 135 38 83 c38 85 47 138 32 197
-8 30 -6 33 78 101 l87 70 46 -20 c55 -25 113 -28 136 -9 28 24 43 62 85 214
50 181 56 218 42 258 -9 27 -8 35 5 50 13 15 15 30 11 70 -15 127 -182 280
-347 318 -61 14 -206 12 -255 -3z m307 -118 c58 -27 132 -77 125 -85 -3 -2
-20 5 -38 16 -64 38 -122 52 -204 52 -127 0 -217 -42 -275 -129 -35 -52 -70
-156 -71 -211 l-1 -36 -13 30 c-8 17 -14 62 -15 100 0 136 78 243 210 286 14
5 70 7 125 6 84 -2 109 -7 157 -29z m123 -295 l70 -18 3 -40 c2 -22 -1 -57 -8
-77 l-11 -38 -60 30 c-33 17 -91 51 -130 75 -57 37 -69 50 -69 71 l0 27 68 -6
c37 -4 99 -15 137 -24z m-427 -342 c31 -16 68 -37 81 -48 l24 -19 -29 -44 -28
-43 -21 28 c-11 15 -37 51 -57 79 -34 45 -47 76 -33 76 3 0 31 -13 63 -29z
m-141 -43 c39 -40 83 -133 83 -173 -1 -27 -2 -28 -12 -10 -29 54 -99 112 -156
130 l-23 7 26 -52 c24 -47 55 -160 55 -200 0 -8 -19 14 -42 50 l-42 65 -13
-70 c-8 -38 -13 -109 -11 -158 2 -48 2 -87 0 -87 -2 0 -20 36 -41 81 l-38 80
-6 -56 c-12 -118 18 -281 97 -529 28 -88 41 -113 68 -137 l33 -28 -48 -1 c-39
0 -52 5 -71 25 -54 58 -118 238 -143 400 -14 95 -13 310 3 415 l5 35 -36 -40
c-43 -48 -95 -133 -95 -157 0 -10 -4 -18 -10 -18 -5 0 -10 23 -10 51 0 28 -4
48 -9 44 -22 -13 -73 -172 -78 -243 -4 -45 -9 -68 -14 -60 -5 7 -9 26 -9 43 0
47 -15 19 -64 -122 -58 -168 -111 -384 -131 -538 -15 -108 -32 -198 -51 -264
-6 -21 -5 -23 22 -18 16 4 83 9 149 12 l120 6 -85 -29 c-47 -16 -129 -46 -183
-67 -54 -20 -100 -35 -102 -33 -7 7 16 269 36 402 68 471 175 762 363 988 61
74 152 153 222 194 42 25 192 94 205 94 3 0 19 -15 36 -32z m-1708 -868 c8 -4
-48 -11 -125 -14 -76 -3 -160 -8 -186 -10 -48 -3 -77 12 -64 33 7 11 352 3
375 -9z m-134 -131 c14 -5 3 -8 -36 -8 -31 -1 -71 -4 -88 -7 l-31 -7 1 -351
c0 -193 4 -359 8 -370 4 -11 14 27 25 100 10 66 22 126 27 134 5 8 9 -82 9
-207 l0 -223 124 0 124 0 6 63 c3 34 13 148 22 252 23 272 30 282 39 55 4
-107 10 -233 14 -280 l6 -85 154 -5 153 -5 -42 -27 -42 -28 -354 0 -354 0 0
503 c0 277 2 506 5 508 7 8 208 -3 230 -12z m3618 -234 c-1 -60 -5 -135 -9
-165 l-7 -55 -26 135 c-21 103 -31 136 -43 138 -34 7 -196 -40 -286 -83 -53
-25 -97 -43 -100 -41 -10 11 67 69 133 101 84 41 258 85 320 81 19 -1 20 -7
18 -111z m-1668 -31 c126 -34 671 -117 717 -110 50 8 83 -7 145 -65 74 -70
107 -82 234 -83 l105 -1 1 -95 c0 -91 3 -104 68 -290 130 -375 193 -576 210
-674 48 -265 -28 -530 -199 -702 -68 -67 -140 -112 -208 -128 -25 -6 -28 -4
-28 18 0 42 -44 83 -118 106 -115 38 -214 81 -295 129 l-78 45 7 46 c4 25 7
46 9 47 1 2 23 7 49 12 26 5 50 11 53 14 3 4 21 95 39 204 19 109 51 277 71
373 20 96 50 244 68 328 44 212 35 261 -63 323 -91 57 -492 175 -853 249
l-156 32 -7 67 c-3 36 -3 103 1 148 l6 81 66 -25 c36 -14 107 -36 156 -49z
m902 66 c43 -6 92 -16 110 -21 34 -11 93 -70 93 -94 0 -19 2 -19 -62 10 -30
14 -90 34 -133 45 -73 19 -115 41 -115 62 0 10 12 10 107 -2z m431 -435 c27
-118 83 -302 138 -450 171 -462 190 -537 180 -715 -20 -367 -241 -692 -521
-765 -49 -12 -143 -15 -567 -15 l-508 0 0 29 0 28 488 -1 c544 -1 535 -2 675
71 90 48 207 171 263 279 86 163 121 318 111 492 -7 126 -29 213 -122 477
-157 447 -174 502 -181 568 -6 64 -5 69 12 65 14 -2 22 -19 32 -63z m-1414 25
c306 -62 700 -171 798 -221 60 -31 83 -98 57 -166 -11 -28 -11 -28 -20 -5 -4
12 -11 22 -15 22 -4 0 -29 -16 -55 -35 -27 -19 -51 -35 -54 -35 -2 0 5 16 16
35 30 50 22 76 -31 102 -93 46 -164 58 -342 58 l-167 0 37 19 c20 11 55 25 77
31 l40 13 -60 8 c-33 5 -130 9 -215 8 -122 -1 -171 -5 -230 -22 -41 -11 -76
-19 -78 -17 -6 5 126 76 179 96 27 11 61 19 76 19 21 0 24 3 15 12 -8 8 -54
12 -139 12 -141 1 -215 -15 -385 -79 -102 -38 -101 -29 7 52 103 78 210 121
300 122 22 1 107 -13 189 -29z m1717 -353 c103 -191 199 -365 213 -387 20 -30
44 -48 111 -79 47 -22 107 -43 133 -47 102 -14 135 -43 151 -128 10 -52 7 -53
-18 -4 -19 35 -49 50 -163 83 -32 9 -78 32 -104 51 -25 20 -48 34 -49 32 -2
-2 4 -29 15 -59 17 -54 53 -239 47 -245 -5 -5 -191 265 -241 349 -125 211
-294 610 -320 755 -5 30 -4 33 16 30 17 -2 60 -75 209 -351z m-2466 -121 c103
-16 269 -56 261 -63 -2 -3 -73 2 -158 11 -229 22 -387 29 -506 20 l-107 -7 75
-18 c41 -10 87 -18 102 -19 15 0 29 -4 32 -9 3 -4 -41 -11 -97 -14 -123 -6
-157 -17 -157 -50 0 -24 22 -51 49 -59 9 -3 -3 -13 -30 -26 -25 -12 -58 -35
-74 -52 -32 -34 -39 -28 79 -67 l71 -23 -139 5 c-76 2 -141 6 -143 9 -8 7 25
119 74 248 45 121 49 127 78 132 63 9 493 -4 590 -18z m1100 -253 c-20 -120
-68 -602 -63 -632 2 -17 15 -28 48 -41 l45 -18 -3 -53 c-2 -30 -9 -60 -17 -69
-8 -9 -19 -62 -26 -125 -17 -159 -17 -159 -85 -151 -68 8 -123 35 -159 78 -40
47 -99 178 -131 287 -22 79 -26 107 -22 191 3 91 7 104 45 181 49 99 142 204
271 308 48 39 90 71 94 71 4 0 5 -12 3 -27z m-1755 -207 c0 -2 -26 -20 -57
-41 -188 -124 -367 -311 -494 -516 -52 -83 -151 -279 -181 -356 -19 -51 -44
-59 -34 -12 24 120 165 398 278 547 120 158 301 328 390 367 29 13 98 21 98
11z m825 -31 c50 -14 123 -42 163 -61 79 -38 94 -57 20 -25 -98 42 -194 56
-368 55 -143 -1 -178 -5 -260 -26 -52 -14 -122 -38 -155 -52 -61 -27 -54 -27
44 -1 95 26 222 38 326 31 312 -19 542 -159 623 -378 33 -89 35 -106 7 -58
-98 166 -240 274 -423 321 -213 54 -576 -5 -794 -130 -137 -78 -267 -208 -352
-352 -49 -82 -113 -225 -105 -234 3 -2 147 -5 320 -6 322 -2 672 -11 929 -25
130 -7 139 -9 85 -15 -163 -20 -1545 -53 -1545 -37 0 4 20 55 45 114 93 222
205 401 341 544 199 209 386 308 684 364 14 2 93 3 175 1 127 -2 164 -7 240
-30z m3365 -316 c102 -24 243 -90 326 -151 77 -58 196 -169 189 -177 -10 -10
-493 14 -525 26 -32 12 50 25 204 31 l158 7 -63 47 c-85 63 -206 123 -304 149
-64 17 -110 22 -225 23 -160 1 -195 -6 -317 -66 -96 -47 -232 -184 -291 -293
-55 -102 -45 -59 15 65 78 162 224 289 386 337 124 37 299 38 447 2z m-3690
-40 c74 -5 153 -9 175 -10 l40 -1 -34 -8 c-54 -13 -436 -32 -565 -28 l-119 3
28 33 28 34 156 -7 c86 -3 217 -11 291 -16z m3249 -276 c-117 -120 -163 -178
-238 -302 -64 -106 -65 -86 -2 44 54 113 123 209 184 259 43 35 148 106 156
106 3 0 -43 -48 -100 -107z m-3241 85 c138 -6 252 -15 252 -18 0 -16 -892 -61
-907 -46 -2 2 6 20 19 40 l23 36 180 0 c99 0 294 -5 433 -12z m-48 -188 c140
-5 284 -13 320 -17 l65 -7 -69 -7 c-210 -23 -1036 -51 -1036 -36 0 4 8 22 17
42 l17 35 215 0 c119 0 331 -5 471 -10z m2730 -146 c-11 -49 -34 -131 -50
-182 -17 -51 -30 -101 -30 -111 0 -34 91 -61 229 -70 l105 -6 12 -85 c23 -159
85 -282 198 -396 39 -39 96 -85 126 -103 l55 -32 -290 6 c-159 3 -306 8 -325
10 -19 2 -294 9 -610 16 -526 11 -1185 8 -1670 -7 l-185 -5 54 30 c78 45 138
97 189 165 50 68 105 178 122 248 14 56 -38 45 430 89 240 22 429 33 665 39
365 9 452 21 576 78 147 66 280 188 369 335 25 41 46 74 48 72 2 -2 -6 -43
-18 -91z m1430 19 c38 -41 90 -130 90 -155 0 -7 -13 10 -29 37 -16 28 -59 83
-97 124 -56 61 -63 71 -36 55 19 -10 51 -38 72 -61z m-275 -128 c62 -30 128
-98 158 -163 32 -71 30 -189 -4 -262 -32 -68 -85 -122 -151 -156 -63 -32 -71
-26 -17 11 51 36 113 122 135 187 46 140 -22 299 -161 379 -62 36 -34 38 40 4z
m-146 -35 c130 -66 145 -237 29 -323 -17 -12 -49 -22 -82 -25 -46 -4 -62 0
-100 22 -24 14 -55 43 -68 63 -22 36 -23 37 -26 14 -2 -13 -2 -45 0 -71 3 -55
-4 -55 -32 0 -29 56 -27 150 4 216 23 51 68 94 116 113 42 17 118 13 159 -9z
m-356 -373 c40 -80 111 -158 178 -194 37 -19 39 -22 14 -17 -159 34 -278 195
-262 354 11 98 21 102 28 12 5 -67 13 -96 42 -155z m-3610 25 c74 -76 166
-104 273 -82 33 7 78 22 102 35 23 13 42 20 42 16 0 -14 -66 -69 -110 -92 -63
-33 -177 -33 -237 -1 -94 50 -155 134 -168 232 l-7 45 32 -55 c17 -30 50 -74
73 -98z"/>
<path fill="#E11D48" d="M482 3283 c-54 -197 -93 -409 -117 -640 l-6 -63 279 0 279 0 17 128
c15 116 64 375 84 447 l8 30 165 6 c161 6 198 12 254 41 l27 15 -48 23 c-43
21 -67 24 -206 28 l-156 4 14 40 c8 22 14 44 14 49 0 5 -129 9 -288 9 l-287 0
-33 -117z"/>
<path fill="#E11D48" d="M358 2435 c-5 -5 -8 -91 -8 -192 l0 -183 275 0 275 0 0 185 0 185
-67 0 c-38 0 -158 3 -268 6 -110 4 -203 3 -207 -1z"/>
<path fill="#E11D48" d="M370 1908 c0 -23 39 -272 50 -325 l12 -53 273 0 c151 0 276 3 279 8
2 4 -7 68 -20 142 -13 74 -24 137 -24 140 0 3 42 5 93 5 92 1 187 24 187 46 0
6 -19 19 -42 29 -40 18 -69 20 -425 20 -300 0 -383 -3 -383 -12z"/>
<path fill="#E11D48" d="M592 1393 l-123 -4 6 -32 c13 -61 75 -256 113 -359 l39 -103 301 -3
c166 -1 302 1 302 5 0 5 -23 59 -50 121 -51 114 -110 265 -110 283 0 5 38 9
85 9 98 0 106 9 50 59 l-36 31 -227 -2 c-125 -1 -282 -4 -350 -5z"/>
<path fill="#E11D48" d="M710 734 c0 -3 16 -35 37 -71 l36 -65 221 5 c364 8 756 32 756 46 0
5 -18 21 -40 36 -75 52 -107 55 -577 55 -238 0 -433 -3 -433 -6z"/>
</g>
</svg>
